<?xml version="1.0"?>

<svg viewBox="0 0 500 300" preserveAspectRatio="xMidYMid" min-width="640" min-height="480">
<!--
<svg width="500" height="300" preserveAspectRatio="xMidYMid">
-->
   <g id="title">
      <text fill="lightgray" font-weight="bold" font-style="italic"
            text-anchor="middle" font-family="Arial" font-size="48"
            x="252" y="52">Bathtub</text>
      <text font-weight="bold" font-style="italic"
            text-anchor="middle" font-family="Arial" font-size="48"
            x="250" y="50">Bathtub</text>
   </g>

   <g transform="translate(0,50)">
   <g id="control">
      <text font-family="Times Roman" text-anchor="middle" x="50" y="35">Control</text>

	  <g>
	     <rect fill="lightsteelblue" stroke="none" x="25" y="40" width="50" height="70"/>
	     <line stroke="cyan" x1="25" y1="40" x2="74" y2="40"/>
	     <line stroke="cyan" x1="25" y1="40" x2="25" y2="109"/>
	     <line stroke="steelblue" x1="75" y1="41" x2="75" y2="110"/>
	     <line stroke="steelblue" x1="26" y1="110" x2="75" y2="110"/>

         <g id="active">
	        <animateInputEvent binding="/bathtub/bath-control/@active=invert" eventType="click"/>
            <rect fill="darkred" stroke="lightsteelblue" x="30" y="45" width="40" height="15">
               <animateColor attributeName="fill" from="darkred" to="red"
                             binding="/bathtub/bath-control/@active" begin="0" dur="1" fill="freeze"/>
            </rect>
            <line stroke="steelblue" x1="30" y1="45" x2="69" y2="45"/>
	        <line stroke="steelblue" x1="30" y1="45" x2="30" y2="59"/>
	        <line stroke="cyan" x1="70" y1="46" x2="70" y2="60"/>
	        <line stroke="cyan" x1="31" y1="60" x2="70" y2="60"/>
            <text font-family="Times Roman" text-anchor="middle" x="50" y="72">Active</text>
         </g>

		 <g id="setup">
	        <animateInputEvent binding="/bathtub/@controlSetup" eventType="click"/>
            <rect fill="lightsteelblue" stroke="none" x="30" y="80" width="40" height="25"/>
            <line stroke="cyan" x1="30" y1="80" x2="69" y2="80"/>
	        <line stroke="cyan" x1="30" y1="80" x2="30" y2="104"/>
	        <line stroke="steelblue" x1="70" y1="80" x2="70" y2="105"/>
	        <line stroke="steelblue" x1="31" y1="105" x2="70" y2="105"/>
            <text font-family="Times Roman" text-anchor="middle" x="50" y="95">Setup</text>
		 </g>
	  </g>
	  <g stroke="steelblue">
	     <line x1="72" y1="48" x2="285" y2="48"/>
	     <line x1="285" y1="48" x2="285" y2="52"/>
	     <line x1="215" y1="48" x2="215" y2="52"/>
	     <line x1="90" y1="48" x2="90" y2="210"/>
	     <line x1="90" y1="210" x2="307" y2="210"/>
	     <line x1="307" y1="210" x2="307" y2="205"/>
      </g>
   </g>

   <g id="tub back">
      <polygon stroke="black" fill="aliceblue"
               points="100,100 400,100 380,200 120,200"/>
   </g>
   <g id="hot tap" transform="translate(180,50)">
	  <animateInputEvent binding="/bathtub/hot_tap/@on=invert" eventType="click"/>
      <rect stroke="black" fill="aliceblue" x="25" y="15" width="20" height="10"/>
      <rect stroke="black" fill="aliceblue" x="30" y="20" width="10" height="20"/>
      <text font-family="Times Roman" text-anchor="middle" x="35" y="10">Hot</text>

      <g>
         <bind attributeName="visibility" binding="/bathtub/hot_tap/@on"/>
         <rect stroke="none" fill="red" x="32" y="41" width="6" height="100"/>
         <circle stroke="black" fill="aliceblue" cx="20" cy="20" r="5"/>
         <circle stroke="black" fill="aliceblue" cx="50" cy="20" r="5"/>
      </g>
      <circle stroke="black" fill="aliceblue" cx="35" cy="20" r="5">
         <bind attributeName="visibility" binding="not(/bathtub/hot_tap/@on)"/>
      </circle>
   </g>
   <g id="cold tap" transform="translate(250,50)">
	  <animateInputEvent binding="/bathtub/cold_tap/@on=invert" eventType="click"/>
      <rect stroke="black" fill="aliceblue" x="25" y="15" width="20" height="10"/>
      <rect stroke="black" fill="aliceblue" x="30" y="20" width="10" height="20"/>
      <text font-family="Times Roman" text-anchor="middle" x="35" y="10">Cold</text>
      <g>
         <bind attributeName="visibility" binding="/bathtub/cold_tap/@on"/>
         <rect stroke="none" fill="blue" x="32" y="41" width="6" height="100"/>
         <circle stroke="black" fill="aliceblue" cx="20" cy="20" r="5"/>
         <circle stroke="black" fill="aliceblue" cx="50" cy="20" r="5"/>
      </g>
      <circle stroke="black" fill="aliceblue" cx="35" cy="20" r="5">
         <bind attributeName="visibility" binding="not(/bathtub/cold_tap/@on)"/>
      </circle>
   </g>
   <g id="tub">
	  <g id="water" stroke="blue" fill="blue">
         <animateColor attributeName="fill" attributeType="CSS"
                       from="blue" to="red"
                       binding="/bathtub/@water_temperature" begin="10" dur="40" fill="freeze"/>
         <animateColor attributeName="stroke" attributeType="CSS"
                       from="blue" to="red"
                       binding="/bathtub/@water_temperature" begin="10" dur="40" fill="freeze"/>
         <rect id="bath water" x="120" y="130" width="260" height="70">
            <animate attributeName="y" attributeType="XML"
                     binding="/bathtub/@water_depth" begin="0" dur="100" fill="freeze" from="200" to="100"/>
            <animate attributeName="height" attributeType="XML"
                     binding="/bathtub/@water_depth" begin="0" dur="100" fill="freeze" from="0" to="100"/>
         </rect>
		 <g>
            <bind attributeName="visibility" binding="/bathtub/@water_overflow"/>
            <polyline stroke-width="3" stroke-linecap="round" stroke-linejoin="round" fill="none" points="100,150 100,100 120,100"/>
            <polyline stroke-width="3" stroke-linecap="round" stroke-linejoin="round" fill="none" points="400,150 400,100 380,100"/>
			<ellipse cx="100" cy="150" rx="3" ry="3">
			   <animateTransform attributeName="transform" type="translate" from="0,-20" to="0,10"
                                 begin="0" dur="1" repeatCount="indefinite"/>
			</ellipse>
			<ellipse cx="400" cy="150" rx="3" ry="3">
			   <animateTransform attributeName="transform" type="translate" from="0,-20" to="0,10"
                                 begin="0" dur="1" repeatCount="indefinite"/>
			</ellipse>
         </g>
	  </g>

      <polygon stroke="black" fill="white"
               points="120,100 135,180 295,180 300,200 120,200 100,100"/>
      <polygon stroke="black" fill="white"
               points="320,180 365,180 380,100 400,100 380,200 315,200"/>
   </g>
   <g id="plug">
	  <animateInputEvent binding="/bathtub/plug/@in=invert" eventType="click"/>
      <rect stroke="black" fill="lemonchiffon" x="304" y="170" width="7" height="10"/>
      <polygon stroke="black" fill="lemonchiffon"
               points="295,180 320,180 315,200 300,200"/>
      <animateTransform binding="/bathtub/plug/@in"
                        attributeName="transform" attributeType="XML"
                        type="translate" from="0,-20" to="0,0"
                        begin="0" dur="1" fill="freeze"/>
   </g>
   </g>
</svg>
