<svg min-width="320" min-height="40">
   <defs>
      <symbol id="lightbulb">
         <ellipse stroke="black" fill="white" cx="20" cy="20" rx="-20" ry="-20">
            <animateColor attributeName="fill" begin="0" dur="1" fill="freeze" 
                          from="white" to="yellow" binding="."/>
         </ellipse>
         <polyline stroke-width="1" stroke="grey" fill="none" 
                   points="12,16 16,12 20,16 24,12 28,16 28,16">
            <animateColor attributeName="stroke" begin="0" dur="1" fill="freeze" 
                          from="grey" to="orange" binding="."/>
<!--                          
            <animate attributeName="stroke-width" begin="0" dur="1" fill="freeze" 
                     from="1" to="3" binding="."/>
-->                     
          </polyline>
          <rect stroke="black" fill="lightcoral" x="8" y="32" width="24" height="32" rx="0" ry="0"/>
          <line stroke="black" fill="white" stroke-width="3" x1="4" y1="44" x2="36" y2="40"/>
          <line stroke="black" fill="white" stroke-width="3" x1="4" y1="48" x2="36" y2="44"/>
          <line stroke="black" fill="white" stroke-width="3" x1="4" y1="52" x2="36" y2="48"/>
          <line stroke="black" fill="white" stroke-width="3" x1="4" y1="56" x2="36" y2="52"/>
          <line stroke="black" fill="white" stroke-width="3" x1="4" y1="60" x2="36" y2="56"/>
          <line stroke="black" fill="white" stroke-width="3" x1="4" y1="64" x2="36" y2="60"/>
          <line stroke="black" fill="white" x1="16" y1="32" x2="12" y2="12"/>
          <line stroke="black" fill="white" x1="24" y1="32" x2="28" y2="12"/>
      </symbol>       
      <symbol id="switch">
          <rect stroke="red" fill="brown" x="0" y="0" width="25" height="50" rx="0" ry="0"/>
          <line stroke="lightcoral" x1="5" y1="5" x2="20" y2="5"/>
          <line stroke="lightcoral" x1="5" y1="10" x2="20" y2="10"/>            
          <line stroke="lightcoral" x1="5" y1="15" x2="20" y2="15"/>
          <line stroke="lightcoral" x1="5" y1="20" x2="20" y2="20"/>
          <line stroke="lightcoral" x1="5" y1="25" x2="20" y2="25"/>            
          <line stroke="lightcoral" x1="5" y1="30" x2="20" y2="30"/>            
          <line stroke="lightcoral" x1="5" y1="35" x2="20" y2="35"/>            
          <line stroke="lightcoral" x1="5" y1="40" x2="20" y2="40"/>            
          <line stroke="lightcoral" x1="5" y1="45" x2="20" y2="45"/>                        
          <rect stroke="none" fill="#000000" x="10" y="20" width="5" height="10" rx="0" ry="0"/>
          <g visibility="hidden">
             <bind attributeName="visibility" binding="not(.)"/>
             <animateInputEvent binding=".=0" eventType="click"/>
             <rect stroke="red" fill="white" x="5" y="5" width="5" height="20" rx="0" ry="0"/>
             <rect stroke="red" fill="white" x="15" y="5" width="5" height="20" rx="0" ry="0"/>
             <rect stroke="red" fill="yellow" x="5" y="5" width="15" height="5" rx="0" ry="0"/>
          </g>
          <g visibility="hidden">
             <bind attributeName="visibility" binding="."/>            
             <animateInputEvent binding=".=1" eventType="click"/>
             <rect stroke="red" fill="white" x="5" y="25" width="5" height="20" rx="0" ry="0"/>
             <rect stroke="red" fill="white" x="15" y="25" width="5" height="20" rx="0" ry="0"/>
             <rect stroke="red" fill="yellow" x="5" y="40" width="15" height="5" rx="0" ry="0"/>
          </g>
          <rect stroke="none" fill="#000000" x="20" y="20" width="5" height="10" rx="0" ry="0"/>
          <rect stroke="none" fill="#000000" x="0" y="20" width="5" height="10" rx="0" ry="0"/>
      </symbol>       
   </defs>
    
   <array transform="translate(20,20)" xlink:href="#lightbulb" symbolPath="/lightdemo/lights/light[$i]/@state"
          spacingX="50">
      <bind attributeName="elements" binding="count(/lightdemo/lights)"/>
   </array>

   <array transform="translate(28,120)" xlink:href="#switch" symbolPath="/lightdemo/@switchState[$i]"
          spacingX="50">
      <bind attributeName="elements" binding="count(/lightdemo/@switchState)"/>
   </array>
</svg>