<svg bgcolor="lightsteelblue">
<!--
   <xul:vbox>
      <xul:hbox height="22">
         <xul:text binding="xul:events/xul:event[@value=11]/@time"/>
         <xul:text binding="xul:events/xul:event[11]/@value"/>
      </xul:hbox>
      <xul:textbox height="22"/>
      <xul:gridedit>
         <xul:gridcolumns path="xul:events/xul:event[$i]">
            <xul:gridcolumn width="160" heading="Time" binding="@time" editable="FALSE"/>
            <xul:gridcolumn value="380" heading="Point" binding="@point"/>
            <xul:gridcolumn width="380" heading="Source" binding="@source"/>
            <xul:gridcolumn heading="Value" binding="@value"/>
         </xul:gridcolumns>
         <xul:gridrows count="50" height="17"/>
      </xul:gridedit>
   </xul:vbox>
-->
   <defs>
      <symbol id="rects">
         <rect stroke="darkred" fill="pink" x="20" y="60" width="40" height="40"/>
         <rect stroke="darkred" fill="pink" x="70" y="60" width="40" height="40"/>
         <rect stroke="darkred" fill="pink" x="20" y="110" width="40" height="40"/>
         <rect stroke="darkred" fill="pink" x="70" y="110" width="40" height="40"/>
      </symbol>
   </defs>
   <xul:button x="20" y="2" width="80" height="30" label="button"
               tooltiptext="Look!!! I'm a button with a fairly long tooltip text string"/>
   <xul:textbox x="120" y="2" width="80" height="24" maxlength="10" dir="rtl" color="red" type="password" tooltiptext="textbox"/>
   <xul:checkbox x="220" y="2" width="80" height="24" label="check" dir="rtl" tooltiptext="check"/>
   <xul:menulist x="640" y="2" width="80" height="24" binding="@list"/>
   <xul:menulist x="640" y="38" width="80" height="16" binding="@list">
      <xul:menupopup>
         <xul:menuitem label="ItemA" color="red"/>
         <xul:menuitem label="ItemB" isdefault="TRUE"/>
         <xul:menuitem label="ItemC"/>
      </xul:menupopup>
   </xul:menulist>

   <xul:togglebutton x="20" y="38" width="80" height="30" label="button" binding="@toggle"/>
   <xul:textbox x="120" y="38" width="80" height="24" maxlength="10" type="numeric"/>
   <xul:checkbox x="220" y="38" width="80" height="24" label="check"/>
   <xul:textbox x="320" y="38" width="80" height="24" binding="@list"/>
   <xul:scrollbar x="40" y="70" width="400" height="18" orient="horizontal" curpos="4" maxpos="5" range="10" binding="@x_position"/>
   <xul:scrollbar x="10" y="100" width="18" height="100" orient="vertical" curpos="4" maxpos="5" range="10" binding="@y_position"/>

   <xul:radio x="420" y="2" width="80" height="24" label="radio"/>
   <xul:radio x="420" y="38" width="80" height="24" label="radio" selected="TRUE"/>

   <xul:textbox x="520" y="2" width="80" height="24" binding="@textvalue" type="nodefault"/>
   <xul:textbox x="520" y="38" width="80" height="24" binding="@textvalue"/>

   <xul:slider minimum="0" maximum="100" position="50" x="460" y="70" width="40" height="400" binding="@progress"/>
   <rect fill="grey" x="520" y="70" width="40" height="400">
      <svg:animateInputSlider min="0" max="100" binding="@progress"/>
   </rect>
   <svg x="40" y="100" width="400" height="100">
      <g transform="translate(0,0)">
         <bind attributeName="transform[0].0" binding="@x_position *10"/>
         <bind attributeName="transform[0].1" binding="@y_position *10"/>
         <rect stroke="darkred" fill="pink" x="20" y="20" width="40" height="40">
            <animateInputEvent eventType="click"/>
         </rect>
         <rect stroke="darkred" fill="pink" x="70" y="20" width="40" height="40">
            <animateInputEvent eventType="click"/>
         </rect>
         <rect stroke="darkred" fill="pink" x="20" y="70" width="40" height="40">
            <animateInputEvent eventType="click"/>
         </rect>
         <rect stroke="darkred" fill="pink" x="70" y="70" width="40" height="40">
            <animateInputEvent eventType="click"/>
         </rect>

         <xul:button x="220" y="20" width="40" height="40" label="A"/>
         <xul:button x="270" y="20" width="40" height="40" label="B"/>
         <xul:button x="220" y="70" width="40" height="40" label="C"/>
         <xul:button x="270" y="70" width="40" height="40" label="D"/>
      </g>
   </svg>
   <xul:button x="10" y="250" width="400" height="40" label="Before Tab"/>
   <xul:tabbox x="10" y="300" width="400" height="100">
      <xul:tabpanel label="A">
         <xul:hbox>
            <xul:button label="7"/>
            <xul:button label="8"/>
            <xul:button label="9"/>
            <xul:button label="C"/>
            <xul:button label="CE"/>
         </xul:hbox>
      </xul:tabpanel>
      <xul:tabpanel label="B">
         <xul:hbox>
            <xul:button label="4"/>
            <xul:button label="5"/>
            <xul:button label="6"/>
            <xul:button label="+"/>
            <xul:button label="-"/>
         </xul:hbox>
      </xul:tabpanel>
      <xul:tabpanel label="C">
         <xul:hbox>
            <xul:button label="1"/>
            <xul:button label="2"/>
            <xul:button label="3"/>
            <xul:button label="*"/>
            <xul:button label="/"/>
         </xul:hbox>
      </xul:tabpanel>
      <xul:tabpanel label="D">
         <xul:hbox>
            <xul:button label="0"/>
            <xul:button label="."/>
            <xul:button label="="/>
         </xul:hbox>
      </xul:tabpanel>
      <xul:tabpanel label="binding" bgcolor="none">
         <xul:hbox>
            <xul:textbox width="80" height="24" binding="@list"/>
            <xul:button width="80" height="24" label="showtest">
               <bind attributeName="visibility" binding="@list=ItemA"/>
            </xul:button>
         </xul:hbox>
      </xul:tabpanel>
   </xul:tabbox>
   <xul:datepickerbutton x="10" y="400" width="400" height="40" color="red" binding="@time"/>
   <xul:button x="10" y="450" width="400" height="40" label="After Tab"/>
   <xul:button x="10" y="500" width="400" height="40" label="After After Tab"/>
   <xul:colorpicker x="10" y="550" width="400" height="40" color="red" binding="@colour"/>
   <text font-size="18" x="10" y="780"><bind attributeName="text" binding="@time"/></text>   
   <xul:datepicker x="10" y="600" width="190" height="154" binding="@time"/>
   <xul:datepicker x="220" y="600" width="190" height="154" binding="@time"/>
   <text font-size="18" x="10" y="800"><bind attributeName="text" binding="@time.0"/></text>
   <text font-size="18" x="55" y="800"><bind attributeName="text" binding="@time.1"/></text>
   <text font-size="18" x="80" y="800"><bind attributeName="text" binding="@time.2"/></text>
   <text font-size="18" x="110" y="800"><bind attributeName="text" binding="@time.3"/></text>
   <text font-size="18" x="135" y="800"><bind attributeName="text" binding="@time.4"/></text>
   <text font-size="18" x="160" y="800"><bind attributeName="text" binding="@time.5"/></text>

   <text x="800" y="100" font-size="48" font-weight="bold">SVG Text</text>

   <xul:text x="600" y="300" width="300" height="100" value="multiline test a bit longer&#13;&#10;with multiline&#13;&#10;&#13;&#10;And now, completely over the edge and beyond"/>
   <xul:text color="blue" background-color="lime" font-size="24" x="600" y="450" width="300" height="100" value="multiline test a bit longer&#13;&#10;with multiline&#13;&#10;&#13;&#10;And now, completely over the edge and beyond"/>
   <xul:textbox x="600" y="600" width="300" height="150" multiline="TRUE" value="multiline test&#13;&#10;with multiline"/>

   <g>
      <g tooltiptext="circles (duh!!)">
         <ellipse stroke="red" fill="purple" cx="650" cy="100" rx="20" ry="20"/>
         <ellipse stroke="red" fill="purple" cx="670" cy="120" rx="20" ry="20"/>
      </g>
      <g>
         <ellipse stroke="red" fill="purple" cx="750" cy="100" rx="20" ry="20"/>
         <ellipse stroke="red" fill="purple" cx="770" cy="120" rx="20" ry="20"/>
      </g>
   </g>
   <use transform="translate(650,100)" xlink:href="#rects" tooltiptext="symbol"/>
<!--   
   <xul:progressmeter value="50" x="460" y="500" width="100" height="20" binding="@progress"/>
   <xul:progressmeter value="50" x="460" y="550" width="100" height="20" mode="undetermined"/>
-->
</svg>